<?xml version="1.0" encoding="UTF-8"?><svg id="Layer_1" xmlns="http://www.w3.org/2000/svg" viewBox="0 0 40 19.45"><defs><style>.cls-1{fill:#ffd00b;stroke-width:0px;}</style></defs><path class="cls-1" d="m40,5.68c-2.01,4.2-3.99,8.34-5.98,12.5.12.02.2.03.31.04v1.23H5.66v-1.22c.09-.02.18-.03.3-.05C3.98,14.02,1.99,9.87,0,5.7c.94.18,1.83.4,2.43,1.2.41.54.48,1.18.46,1.83-.03.91-.07,1.82.24,2.7.13.36.29.7.45,1.06.14-.06.24-.12.35-.16.13-.05.15-.12.11-.26-.14-.52-.32-1.05-.38-1.58-.18-1.42.23-2.81,1.75-3.38,1.01-.38,1.98-.29,2.79.49.75.73.87,1.77.34,2.71-.16.27-.36.52-.55.79-.16-.35-.28-.65-.45-.93-.31-.54-.78-.89-1.43-.82-.72.07-1.12.55-1.3,1.21-.12.43-.1.85.08,1.29.19-.09.37-.18.55-.26.28-.12.36-.09.49.18.12.26.25.51.37.77.16.35.16.36-.19.54-.17.09-.34.17-.51.26.25.59.87.87,1.42.66.66-.25.8-.78.45-1.8.57.08,1.06.3,1.43.73.5.59.54,1.35.12,2.04-.33.55-1.15.87-1.83.72-1.02-.22-1.69-.91-2.23-1.74-.04-.07-.08-.14-.13-.22-.17.08-.33.16-.51.25.22.54.51,1.01.92,1.4.41.38.85.73,1.22,1.06.16-.04.28-.07.41-.09.75-.11,1.39-.45,1.96-.93,1.03-.87,1.74-1.98,2.36-3.16.06-.11.04-.16-.06-.24-.39-.29-.52-.81-.33-1.24.19-.43.64-.65,1.13-.57.44.08.78.46.82.94.02.28-.1.55-.46.95.42.52.86,1.04,1.29,1.57.02,0,.05-.02.07-.03.11-.92.57-1.61,1.34-2.12.05,1.25.49,1.84,1.34,1.83.77,0,1.35-.63,1.38-1.53-.12,0-.23,0-.35,0-.18,0-.36,0-.54,0-.21,0-.31-.07-.3-.31.02-.45,0-.9,0-1.35,0-.31.01-.34.32-.36.26-.02.53,0,.79,0,.06-.75-.58-1.74-1.33-2.1-.75-.36-1.55-.19-2.09.44-.34.4-.46.88-.48,1.39,0,.34.03.68.05,1.04-.42-.12-.8-.33-1.15-.6-.73-.55-1.18-1.27-1.17-2.21.01-1.08.48-1.93,1.4-2.51,1.6-1,3.89-.75,5.05,1.35.47.85.67,1.76.8,2.71,0,.06.02.12.02.18,0,.16.08.22.24.21.15-.01.31,0,.48,0,.01-.82.03-1.63-.28-2.38-.29-.73-.63-1.45-.98-2.16-.29-.61-.52-1.22-.5-1.9.03-.79.39-1.44.92-1.99.42-.42.88-.8,1.38-1.24.52.48,1.05.91,1.49,1.41.93,1.04.99,2.21.4,3.45-.37.79-.75,1.58-1.09,2.38-.3.73-.29,1.52-.3,2.29,0,.04.07.12.11.12.19.01.38,0,.56,0,.13-.62.22-1.21.37-1.8.2-.79.57-1.51,1.13-2.11,1.31-1.39,3.52-1.46,4.92-.16,1.04.96,1.22,2.6.39,3.7-.46.61-1.07,1-1.83,1.26.03-.2.05-.36.07-.53.05-.61,0-1.2-.33-1.73-.56-.89-1.7-1.08-2.56-.43-.57.43-.9,1-1.02,1.71-.03.19.05.2.19.2.23,0,.46,0,.69,0,.19,0,.26.1.26.28,0,.47,0,.94,0,1.41,0,.27-.03.3-.31.31-.28,0-.57,0-.88,0,.02.55.19,1,.64,1.3.46.3.95.34,1.41.04.58-.37.69-.97.66-1.61.58.21,1.07.96,1.37,2.14.54-.5.98-1.06,1.36-1.66-.49-.67-.46-1.27.06-1.66.43-.32,1.07-.23,1.41.2.38.49.24,1.05-.42,1.59.23.4.45.81.69,1.21.57.92,1.23,1.77,2.14,2.39.5.34,1.05.56,1.66.61.06,0,.12.08.2.13.29-.25.61-.53.93-.79.53-.43.93-.95,1.21-1.56.02-.05.03-.1.06-.16-.16-.08-.32-.16-.47-.23-.22.3-.42.6-.65.87-.45.52-.98.91-1.67,1.07-.9.2-1.73-.21-2.05-1.02-.34-.85-.03-1.69.81-2.15.27-.15.57-.22.88-.31-.19.44-.3.85-.11,1.29.11.26.32.41.57.51.55.22,1.16-.06,1.43-.66-.21-.11-.42-.22-.63-.32-.19-.08-.21-.21-.13-.38.15-.31.3-.62.44-.93.08-.19.21-.22.38-.15.2.09.41.18.63.29.17-.39.19-.77.11-1.18-.14-.7-.62-1.22-1.29-1.32-.59-.08-1.04.18-1.36.65-.22.32-.37.69-.56,1.05-.58-.6-.99-1.32-.85-2.21.14-.93.71-1.55,1.61-1.82,1.54-.47,3.37.49,3.57,2.38.09.83-.06,1.62-.3,2.4-.15.48-.15.48.36.67.26-.5.53-1,.6-1.57.08-.67.06-1.35.11-2.03.03-.47.03-.95.16-1.39.24-.83.9-1.25,1.67-1.52.33-.11.67-.18,1.07-.29Zm-28.16,10.59c.69,0,1.3-.54,1.31-1.32,0-.7-.63-1.32-1.32-1.31-.7,0-1.32.63-1.31,1.33,0,.71.61,1.31,1.33,1.3Zm16.38,0c.72,0,1.32-.59,1.32-1.3,0-.69-.62-1.32-1.32-1.32-.7,0-1.31.61-1.32,1.32,0,.7.6,1.31,1.31,1.31Zm-6.48-.24c.5-.13,1.01-.27,1.53-.4,0-.02,0-.05,0-.07-.69-.37-1.15-.95-1.49-1.65-.33-.69-.47-1.42-.54-2.17h-.71c-.03.76.05,1.5.32,2.19.27.69.58,1.37.9,2.11Zm-5.01-.42c.39.1.74.21,1.1.29.47.11.46.09.63-.35.2-.5.43-.98.64-1.47.29-.69.39-1.42.38-2.17,0-.07-.07-.19-.11-.19-.2-.02-.4,0-.6,0-.15,1.58-.61,2.96-2.05,3.9Z"/></svg>