<?xml version="1.0" encoding="UTF-8"?><svg id="Layer_1" xmlns="http://www.w3.org/2000/svg" viewBox="0 0 202 34"><defs><style>.cls-1{fill:#fff;}.cls-1,.cls-2{stroke-width:0px;}.cls-2{fill:#e6e6e6;}</style></defs><path class="cls-1" d="m43.21,11.07c0-2.27,0-2.68-.03-3.14-.03-.49-.14-.73-.6-.83-.11-.03-.35-.04-.48-.04-.06,0-.11-.03-.11-.09,0-.09.07-.12.22-.12.63,0,1.51.04,1.58.04.15,0,1.22-.04,1.65-.04.88,0,1.82.09,2.57.64.35.26.97.97.97,1.98,0,1.08-.43,2.15-1.7,3.36,1.15,1.53,2.1,2.82,2.92,3.72.76.83,1.36.99,1.71,1.05.27.04.46.04.55.04.07,0,.13.04.13.09,0,.09-.08.12-.34.12h-1c-.79,0-1.14-.07-1.5-.28-.6-.33-1.09-1.05-1.89-2.14-.59-.8-1.25-1.78-1.53-2.15-.06-.06-.1-.09-.18-.09l-1.72-.03c-.07,0-.1.04-.1.12v.35c0,1.4,0,2.55.07,3.16.04.42.13.74.55.8.2.03.5.06.63.06.08,0,.11.04.11.09,0,.07-.07.12-.22.12-.77,0-1.65-.04-1.72-.04-.01,0-.9.04-1.32.04-.15,0-.22-.03-.22-.12,0-.04.03-.09.11-.09.13,0,.29-.03.42-.06.28-.06.35-.38.41-.8.07-.61.07-1.76.07-3.16v-2.56Zm1.12,1.27c0,.07.03.13.1.17.21.13.86.23,1.47.23.34,0,.73-.04,1.05-.28.49-.35.86-1.13.86-2.24,0-1.82-.93-2.91-2.43-2.91-.42,0-.8.04-.94.09-.07.03-.11.09-.11.17v4.76Zm7.88,0c0-2.36,1.65-5.69,5.52-5.69,3.15,0,5.51,2.07,5.51,5.46s-2.22,5.95-5.59,5.95c-3.84,0-5.44-3.1-5.44-5.72Zm9.69.17c0-3.49-2.05-5.37-4.26-5.37-2.34,0-4.09,1.6-4.09,4.79,0,3.39,1.96,5.57,4.49,5.57,1.26,0,3.87-.76,3.87-4.99Zm6.25,1.57c0-.79-.14-1.11-.32-1.53-.1-.23-1.98-3.43-2.47-4.19-.35-.54-.7-.9-.95-1.08-.21-.15-.48-.23-.6-.23-.07,0-.14-.03-.14-.1,0-.06.06-.1.18-.1.27,0,1.32.04,1.39.04.1,0,.63-.04,1.18-.04.15,0,.18.04.18.1s-.08.07-.21.13c-.11.06-.18.15-.18.26,0,.17.07.35.18.57.22.42,2.33,4.18,2.58,4.6.27-.61,2.05-3.8,2.33-4.28.18-.31.24-.55.24-.74,0-.2-.06-.36-.22-.41-.13-.04-.21-.07-.21-.15,0-.06.08-.09.22-.09.36,0,.81.04.93.04.08,0,1.09-.04,1.36-.04.1,0,.18.03.18.09,0,.07-.07.12-.18.12-.15,0-.42.06-.64.2-.28.17-.43.35-.74.74-.46.58-2.43,4-2.68,4.63-.21.52-.21.97-.21,1.45v1.25c0,.23,0,.84.04,1.45.03.42.15.74.57.8.2.03.5.06.63.06.08,0,.11.04.11.09,0,.07-.07.12-.22.12-.77,0-1.65-.04-1.72-.04s-.95.04-1.37.04c-.15,0-.22-.03-.22-.12,0-.04.03-.09.11-.09.13,0,.29-.03.42-.06.28-.06.41-.38.43-.8.04-.61.04-1.22.04-1.45v-1.25Zm7.58-.52c-.07,0-.11.04-.14.12l-.84,2.58c-.13.36-.2.71-.2.97,0,.29.27.42.5.42h.13c.14,0,.18.03.18.09,0,.09-.13.12-.25.12-.34,0-.9-.04-1.05-.04s-.93.04-1.58.04c-.18,0-.27-.03-.27-.12,0-.06.07-.09.2-.09.1,0,.22-.01.34-.03.64-.09.93-.64,1.18-1.37l3.18-9.03c.17-.48.22-.57.31-.57s.14.07.31.52c.21.55,2.41,6.56,3.27,8.77.5,1.29.91,1.53,1.21,1.61.21.07.43.09.55.09.08,0,.15.01.15.09,0,.09-.13.12-.28.12-.21,0-1.23,0-2.2-.03-.27-.01-.42-.01-.42-.1,0-.06.04-.09.1-.1.08-.03.17-.16.08-.39l-1.3-3.58c-.03-.06-.06-.09-.13-.09h-3.01Zm2.83-.52c.07,0,.07-.04.06-.1l-1.33-3.93c-.07-.22-.14-.22-.21,0l-1.23,3.93c-.03.07,0,.1.04.1h2.68Zm7.47.63c0,2.14.06,3.07.31,3.33.22.23.59.33,1.68.33.74,0,1.36-.01,1.7-.44.18-.23.32-.6.36-.87.01-.12.04-.19.13-.19.07,0,.08.06.08.22s-.1,1.03-.21,1.45c-.1.33-.14.39-.88.39-1.21,0-2.4-.09-3.76-.09-.43,0-.86.04-1.37.04-.15,0-.22-.03-.22-.12,0-.04.03-.09.11-.09.13,0,.29-.03.42-.06.28-.06.35-.38.41-.8.07-.61.07-1.76.07-3.16v-2.56c0-2.27,0-2.68-.03-3.14-.03-.49-.14-.73-.6-.83-.11-.03-.35-.04-.48-.04-.06,0-.11-.03-.11-.09,0-.09.07-.12.22-.12.63,0,1.51.04,1.58.04s1.09-.04,1.51-.04c.15,0,.22.03.22.12,0,.06-.06.09-.11.09-.1,0-.29.01-.46.04-.41.07-.52.32-.55.83-.03.47-.03.87-.03,3.14v2.59Zm12.77,0c0,2.14.06,3.07.31,3.33.22.23.59.33,1.68.33.74,0,1.36-.01,1.7-.44.18-.23.32-.6.36-.87.01-.12.04-.19.13-.19.07,0,.08.06.08.22s-.1,1.03-.21,1.45c-.1.33-.14.39-.88.39-1.21,0-2.4-.09-3.76-.09-.43,0-.86.04-1.37.04-.15,0-.22-.03-.22-.12,0-.04.03-.09.11-.09.13,0,.29-.03.42-.06.28-.06.35-.38.41-.8.07-.61.07-1.76.07-3.16v-2.56c0-2.27,0-2.68-.03-3.14-.03-.49-.14-.73-.6-.83-.11-.03-.35-.04-.48-.04-.06,0-.11-.03-.11-.09,0-.09.07-.12.22-.12.63,0,1.51.04,1.58.04s1.09-.04,1.51-.04c.15,0,.22.03.22.12,0,.06-.06.09-.11.09-.1,0-.29.01-.46.04-.41.07-.52.32-.55.83-.03.47-.03.87-.03,3.14v2.59Zm8-.1c-.07,0-.11.04-.14.12l-.84,2.58c-.13.36-.2.71-.2.97,0,.29.27.42.5.42h.13c.14,0,.18.03.18.09,0,.09-.13.12-.25.12-.34,0-.9-.04-1.05-.04s-.93.04-1.58.04c-.18,0-.27-.03-.27-.12,0-.06.07-.09.2-.09.1,0,.22-.01.34-.03.64-.09.93-.64,1.18-1.37l3.18-9.03c.17-.48.22-.57.31-.57s.14.07.31.52c.21.55,2.41,6.56,3.27,8.77.5,1.29.91,1.53,1.21,1.61.21.07.43.09.55.09.08,0,.15.01.15.09,0,.09-.13.12-.28.12-.21,0-1.23,0-2.2-.03-.27-.01-.42-.01-.42-.1,0-.06.04-.09.1-.1.08-.03.17-.16.08-.39l-1.3-3.58c-.03-.06-.06-.09-.13-.09h-3.01Zm2.83-.52c.07,0,.07-.04.06-.1l-1.33-3.93c-.07-.22-.14-.22-.21,0l-1.23,3.93c-.03.07,0,.1.04.1h2.68Zm5.88.52c0-5.25.03-3.36.01-6.18,0-.57.04-.73.15-.73s.35.32.49.47c.21.25,2.3,2.59,4.46,4.99,1.39,1.54,2.92,3.32,3.36,3.8l-.15-7.39c-.01-.95-.11-1.27-.55-1.38-.25-.06-.48-.07-.6-.07-.15,0-.2-.04-.2-.1,0-.09.11-.1.28-.1.63,0,1.3.04,1.46.04s.62-.04,1.19-.04c.15,0,.25.01.25.1,0,.06-.06.09-.15.1-.11.01-.2.03-.36.06-.39.09-.49.31-.49,1.31l-.03,8.5c0,.96-.03,1.03-.13,1.03-.11,0-.28-.16-1.02-.93-.15-.15-2.17-2.28-3.66-3.94-1.63-1.82-3.21-3.65-3.66-4.18l.18,6.97c.03,1.19.17,1.57.55,1.69.27.07.57.09.7.09.07,0,.11.03.11.09,0,.09-.08.12-.25.12-.8,0-1.36-.04-1.49-.04s-.71.04-1.35.04c-.14,0-.22-.01-.22-.12,0-.06.04-.09.11-.09.11,0,.36-.01.57-.09.35-.1.42-.52.42-1.85v-2.15Zm13.79-2.49c0-2.27,0-2.68-.03-3.14-.03-.49-.14-.73-.6-.83-.1-.03-.28-.03-.41-.04-.1-.01-.18-.03-.18-.09,0-.09.07-.12.22-.12.32,0,.7,0,1.58.04.1,0,2.89,0,3.21-.01.31-.01.56-.04.64-.09.08-.04.11-.06.15-.06s.06.06.06.13c0,.1-.08.28-.11.68-.01.22-.03.49-.06.87-.01.15-.06.25-.11.25-.08,0-.11-.07-.11-.19,0-.19-.03-.36-.07-.48-.1-.33-.39-.48-1.01-.54-.24-.03-1.77-.04-1.92-.04-.06,0-.08.04-.08.15v4.02c0,.1.01.15.08.15.18,0,1.91,0,2.23-.03.38-.03.56-.07.7-.25.07-.09.11-.15.17-.15.04,0,.07.03.07.12s-.07.33-.11.81c-.04.45-.04.79-.06.99-.01.15-.04.22-.1.22-.08,0-.1-.12-.1-.23,0-.13-.01-.28-.06-.41-.06-.22-.22-.42-.73-.48-.38-.04-1.77-.07-2-.07-.07,0-.1.04-.1.1v1.28c0,.49-.01,2.18,0,2.49.03.6.11.92.46,1.06.24.1.62.13,1.16.13.42,0,.88-.01,1.26-.13.45-.15.6-.45.71-1.08.03-.16.06-.22.13-.22.08,0,.08.12.08.22,0,.12-.11,1.11-.18,1.41-.1.38-.21.38-.76.38-1.04,0-1.5-.03-2.05-.04-.56-.01-1.21-.04-1.75-.04-.34,0-.67.06-1.04.04-.15,0-.22-.03-.22-.12,0-.04.07-.07.15-.09.14-.01.22-.01.32-.04.29-.07.48-.28.5-1.37.01-.57.03-1.31.03-2.6v-2.56Zm13.1,0c0-2.27,0-2.68-.03-3.14-.03-.49-.1-.73-.56-.83-.11-.03-.35-.04-.48-.04-.1,0-.15-.03-.15-.09,0-.09.07-.12.22-.12.63,0,1.51.04,1.58.04.17,0,1.05-.04,1.89-.04,1.39,0,3.95-.13,5.62,1.66.7.76,1.36,1.96,1.36,3.7,0,1.83-.73,3.24-1.51,4.1-.6.65-1.86,1.67-4.25,1.67-.6,0-1.35-.04-1.95-.09-.62-.04-1.09-.09-1.16-.09-.03,0-.27,0-.56.01-.28,0-.6.03-.81.03-.15,0-.22-.03-.22-.12,0-.04.03-.09.14-.09.15-.01.27-.03.39-.06.28-.06.35-.38.41-.8.07-.61.07-1.76.07-3.16v-2.56Zm1.18,1.57c0,1.54.01,2.88.03,3.16.01.36.04.95.15,1.11.18.28.73.58,2.38.58,1.3,0,2.51-.49,3.34-1.35.73-.74,1.12-2.14,1.12-3.48,0-1.85-.77-3.04-1.35-3.67-1.32-1.44-2.92-1.64-4.58-1.64-.28,0-.8.04-.91.1-.13.06-.17.13-.17.29-.01.49-.01,1.98-.01,3.1v1.8Zm11.44-1.57c0-2.27,0-2.68-.03-3.14-.03-.49-.14-.73-.6-.83-.1-.03-.28-.03-.41-.04-.1-.01-.18-.03-.18-.09,0-.09.07-.12.22-.12.32,0,.7,0,1.58.04.1,0,2.89,0,3.21-.01.31-.01.56-.04.64-.09.08-.04.11-.06.15-.06s.06.06.06.13c0,.1-.08.28-.11.68-.01.22-.03.49-.06.87-.01.15-.06.25-.11.25-.08,0-.11-.07-.11-.19,0-.19-.03-.36-.07-.48-.1-.33-.39-.48-1.01-.54-.24-.03-1.77-.04-1.92-.04-.06,0-.08.04-.08.15v4.02c0,.1.01.15.08.15.18,0,1.91,0,2.23-.03.38-.03.56-.07.7-.25.07-.09.11-.15.17-.15.04,0,.07.03.07.12s-.07.33-.11.81c-.04.45-.04.79-.06.99-.01.15-.04.22-.1.22-.08,0-.1-.12-.1-.23,0-.13-.01-.28-.06-.41-.06-.22-.22-.42-.73-.48-.38-.04-1.77-.07-2-.07-.07,0-.1.04-.1.1v1.28c0,.49-.01,2.18,0,2.49.03.6.11.92.46,1.06.24.1.62.13,1.16.13.42,0,.88-.01,1.26-.13.45-.15.6-.45.71-1.08.03-.16.06-.22.13-.22.08,0,.08.12.08.22,0,.12-.11,1.11-.18,1.41-.1.38-.21.38-.76.38-1.04,0-1.5-.03-2.05-.04-.56-.01-1.21-.04-1.75-.04-.34,0-.67.06-1.04.04-.15,0-.22-.03-.22-.12,0-.04.07-.07.15-.09.14-.01.22-.01.32-.04.29-.07.48-.28.5-1.37.01-.57.03-1.31.03-2.6v-2.56Zm8.05,2.49c0-5.25.03-3.36.01-6.18,0-.57.04-.73.15-.73s.35.32.49.47c.21.25,2.3,2.59,4.46,4.99,1.39,1.54,2.92,3.32,3.36,3.8l-.15-7.39c-.01-.95-.11-1.27-.55-1.38-.25-.06-.48-.07-.6-.07-.15,0-.2-.04-.2-.1,0-.09.11-.1.28-.1.63,0,1.3.04,1.46.04s.62-.04,1.19-.04c.15,0,.25.01.25.1,0,.06-.06.09-.15.1-.11.01-.2.03-.36.06-.39.09-.49.31-.49,1.31l-.03,8.5c0,.96-.03,1.03-.13,1.03-.11,0-.28-.16-1.02-.93-.15-.15-2.17-2.28-3.66-3.94-1.63-1.82-3.21-3.65-3.66-4.18l.18,6.97c.03,1.19.17,1.57.55,1.69.27.07.57.09.7.09.07,0,.11.03.11.09,0,.09-.08.12-.25.12-.8,0-1.36-.04-1.49-.04s-.71.04-1.35.04c-.14,0-.22-.01-.22-.12,0-.06.04-.09.11-.09.11,0,.36-.01.57-.09.35-.1.42-.52.42-1.85v-2.15Zm16.68.07c0,1.4,0,2.55.07,3.16.04.42.13.74.55.8.2.03.5.06.63.06.08,0,.11.04.11.09,0,.07-.07.12-.22.12-.77,0-1.65-.04-1.72-.04s-.95.04-1.37.04c-.15,0-.22-.03-.22-.12,0-.04.03-.09.11-.09.13,0,.29-.03.42-.06.28-.06.35-.38.41-.8.07-.61.07-1.76.07-3.16v-6.15c-.69.01-1.39.01-2.07.03-.87.01-1.21.12-1.43.47-.15.25-.2.35-.24.45-.04.12-.08.15-.14.15-.04,0-.07-.04-.07-.13,0-.15.28-1.4.31-1.51.03-.09.08-.28.14-.28.1,0,.24.15.62.17.41.04.94.07,1.11.07h5.26c.45,0,.77-.03,1-.07.21-.03.34-.07.39-.07.07,0,.07.09.07.17,0,.44-.04,1.44-.04,1.6,0,.13-.04.19-.1.19-.07,0-.1-.04-.11-.25,0-.06-.01-.1-.01-.16-.04-.44-.38-.77-1.72-.8-.59-.01-1.18-.01-1.77-.03v6.15Zm6.67-.07c-.07,0-.11.04-.14.12l-.84,2.58c-.13.36-.2.71-.2.97,0,.29.27.42.5.42h.13c.14,0,.18.03.18.09,0,.09-.13.12-.25.12-.34,0-.9-.04-1.05-.04s-.93.04-1.58.04c-.18,0-.27-.03-.27-.12,0-.06.07-.09.2-.09.1,0,.22-.01.34-.03.64-.09.93-.64,1.18-1.37l3.18-9.03c.17-.48.22-.57.31-.57s.14.07.31.52c.21.55,2.41,6.56,3.27,8.77.5,1.29.91,1.53,1.21,1.61.21.07.43.09.55.09.08,0,.15.01.15.09,0,.09-.13.12-.28.12-.21,0-1.23,0-2.2-.03-.27-.01-.42-.01-.42-.1,0-.06.04-.09.1-.1.08-.03.17-.16.08-.39l-1.3-3.58c-.03-.06-.06-.09-.13-.09h-3.01Zm2.83-.52c.07,0,.07-.04.06-.1l-1.33-3.93c-.07-.22-.14-.22-.21,0l-1.23,3.93c-.03.07,0,.1.04.1h2.68Zm7.47.63c0,2.14.06,3.07.31,3.33.22.23.59.33,1.68.33.74,0,1.36-.01,1.7-.44.18-.23.32-.6.36-.87.01-.12.04-.19.13-.19.07,0,.08.06.08.22s-.1,1.03-.21,1.45c-.1.33-.14.39-.88.39-1.21,0-2.4-.09-3.76-.09-.43,0-.86.04-1.37.04-.15,0-.22-.03-.22-.12,0-.04.03-.09.11-.09.13,0,.29-.03.42-.06.28-.06.35-.38.41-.8.07-.61.07-1.76.07-3.16v-2.56c0-2.27,0-2.68-.03-3.14-.03-.49-.14-.73-.6-.83-.11-.03-.35-.04-.48-.04-.06,0-.11-.03-.11-.09,0-.09.07-.12.22-.12.63,0,1.51.04,1.58.04s1.09-.04,1.51-.04c.15,0,.22.03.22.12,0,.06-.06.09-.11.09-.1,0-.29.01-.46.04-.41.07-.52.32-.55.83-.03.47-.03.87-.03,3.14v2.59Z"/><path class="cls-2" d="m104.23,24.07c-.57-.81-1.4-1.21-2.33-1.21-1.55,0-2.85,1.23-2.85,3.03s1.24,3.02,2.89,3.02c.91,0,1.69-.4,2.3-1.17l.52.42c-.67.91-1.67,1.39-2.86,1.39-2.19,0-3.53-1.66-3.53-3.72s1.5-3.65,3.53-3.65c1.2,0,2.22.51,2.86,1.48l-.52.42Z"/><path class="cls-2" d="m108.86,22.34h3.74v.69h-3.08s0,2.2,0,2.2h3.08v.69h-3.08s0,2.77,0,2.77h3.08v.69h-3.74s0-7.04,0-7.04Z"/><path class="cls-2" d="m116.54,29.38v-7.04h.14s4.34,5.39,4.34,5.39v-5.39h.66v7.04h-.15s-4.33-5.32-4.33-5.32v5.32h-.66Z"/><path class="cls-2" d="m125.4,23.03v-.69h3.59v.69h-1.46s0,6.35,0,6.35h-.66v-6.35s-1.48,0-1.48,0Z"/><path class="cls-2" d="m132.72,22.34h3.74v.69h-3.08s0,2.2,0,2.2h3.08v.69h-3.08s0,2.77,0,2.77h3.08v.69h-3.74s0-7.04,0-7.04Z"/><path class="cls-2" d="m140.42,22.34h1.5c.68,0,1.2.05,1.52.18.67.27,1.08.9,1.08,1.7,0,.35-.05.56-.19.87-.34.73-.99,1.02-2.08,1.02l2.36,3.27h-.81s-2.35-3.27-2.35-3.27h-.37s0,3.27,0,3.27h-.66v-7.04Zm.66.69v2.39c.36,0,.74,0,1.09,0,.57,0,1-.06,1.29-.3.24-.21.39-.55.39-.91,0-.69-.44-1.19-1.42-1.19h-1.34Z"/><polygon class="cls-2" points="92.58 26.41 92.58 25.3 42.1 25.86 92.58 26.41"/><polygon class="cls-2" points="150.39 26.41 150.39 25.3 200.87 25.86 150.39 26.41"/><path class="cls-1" d="m14.14,8.58c.57.17,1.05.33,1.54.44.94.21,1.86.06,2.73-.33,1.15-.51,2.08-1.35,3.01-2.18,1.66-1.49,3.36-2.92,5.27-4.04,1.31-.77,2.66-1.41,4.15-1.71,1.14-.23,2.27-.21,3.34.32.96.47,1.6,1.26,2.04,2.25.45,1.01.65,2.09.68,3.2.03.98.07,1.97-.01,2.95-.09,1.11-.26,2.21-.47,3.3-.53,2.62-1.44,5.11-2.44,7.56-1.15,2.83-2.55,5.52-4.16,8.1-.62.99-1.25,1.98-1.9,2.95-.44.66-.97,1.23-1.64,1.66-.95.61-1.77.48-2.39-.49-.4-.64-.71-1.35-1.01-2.05-.56-1.29-1.07-2.61-1.62-3.9-.28-.65-.64-1.24-1.16-1.72-.51-.47-1.08-.76-1.8-.75h3.37c0,.08,0,.13.01.16.72,1.08,1.42,2.17,2.17,3.24.27.38.61.71.97,1.01.43.35.98.33,1.37-.07.26-.26.5-.57.68-.91,1.7-3.27,3.32-6.58,4.59-10.06.83-2.27,1.48-4.59,1.86-6.99.19-1.19.26-2.41-.12-3.59-.43-1.34-1.34-2.02-2.7-2.05-1.13-.03-2.17.31-3.2.72-1.62.63-3.11,1.54-4.59,2.47-.94.6-1.86,1.22-2.82,1.77-.84.48-1.75.79-2.74.81-.64.01-1.21-.17-1.72-.56-.51-.39-.9-.89-1.29-1.49Z"/><path class="cls-2" d="m19.94,6.25c-.6.79-1.38,1.32-2.33,1.57-1.13.31-2.24.2-3.32-.23-.91-.36-1.8-.78-2.69-1.18-1.03-.46-2.08-.84-3.19-1.01-.87-.13-1.74-.16-2.6.09-1.25.36-2.06,1.21-2.47,2.46-.43,1.28-.47,2.6-.29,3.94.33,2.51,1.24,4.82,2.32,7.06,1.67,3.45,3.74,6.63,6,9.68.55.74,1.12,1.46,1.67,2.18.03.04.33.37.3.46-.28-.27-.86-.83-1.14-1.11-2.24-2.2-4.31-4.56-6.1-7.17-1.61-2.35-2.96-4.85-3.9-7.57-.78-2.27-1.3-4.6-1.18-7.02.07-1.53.4-3,1.23-4.31.77-1.22,1.88-1.93,3.26-2.18,1.29-.23,2.52.04,3.74.46,1.68.58,3.16,1.5,4.53,2.65.65.54,1.36,1,2.14,1.33,1.3.55,2.58.47,3.85-.1.04-.02.09-.04.13-.06.02.02.03.05.05.07Z"/><path class="cls-2" d="m30.07,14.56c-1.11,2.42-2.21,4.8-3.32,7.2.06,0,.11.02.17.03v.71c-5.3,0-10.6,0-15.91,0v-.7s.1-.02.17-.03c-1.1-2.4-2.2-4.78-3.31-7.18.52.1,1.01.23,1.35.69.23.31.27.68.25,1.05-.02.52-.04,1.05.13,1.56.07.2.16.4.25.61.08-.04.13-.07.2-.09.07-.03.08-.07.06-.15-.08-.3-.18-.6-.21-.91-.1-.82.13-1.62.97-1.95.56-.22,1.1-.16,1.55.28.42.42.48,1.02.19,1.56-.09.16-.2.3-.31.45-.09-.2-.16-.37-.25-.54-.17-.31-.43-.51-.79-.47-.4.04-.62.32-.72.7-.07.25-.06.49.04.74.11-.05.2-.1.3-.15.16-.07.2-.05.27.1.07.15.14.29.2.44.09.2.09.21-.11.31-.1.05-.19.1-.29.15.14.34.48.5.79.38.37-.14.44-.45.25-1.04.32.05.59.17.79.42.28.34.3.77.07,1.17-.19.32-.64.5-1.02.41-.57-.13-.94-.52-1.24-1-.02-.04-.05-.08-.07-.13-.1.05-.18.09-.28.14.12.31.28.58.51.81.23.22.47.42.68.61.09-.02.16-.04.23-.05.42-.06.77-.26,1.09-.53.57-.5.96-1.14,1.31-1.82.03-.06.02-.09-.03-.14-.22-.17-.29-.47-.18-.72.11-.24.36-.38.63-.33.25.04.44.27.46.54.01.16-.06.32-.25.54.24.3.47.6.71.9.01,0,.03-.01.04-.02.06-.53.32-.93.74-1.22.03.72.27,1.06.74,1.06.43,0,.75-.37.77-.88-.06,0-.13,0-.19,0-.1,0-.2,0-.3,0-.11,0-.17-.04-.17-.18.01-.26,0-.52,0-.78,0-.18,0-.2.18-.21.15-.01.3,0,.44,0,.03-.43-.32-1-.74-1.21-.42-.21-.86-.11-1.16.25-.19.23-.26.51-.26.8,0,.2.02.39.03.6-.24-.07-.45-.19-.64-.34-.41-.32-.66-.73-.65-1.27,0-.62.27-1.11.78-1.44.89-.58,2.16-.43,2.8.78.26.49.37,1.02.45,1.56,0,.03.01.07.01.1,0,.09.04.13.13.12.09,0,.17,0,.27,0,0-.47.01-.94-.15-1.37-.16-.42-.35-.83-.54-1.24-.16-.35-.29-.7-.27-1.1.02-.45.22-.83.51-1.14.23-.24.49-.46.76-.71.29.28.58.52.83.81.51.6.55,1.27.22,1.99-.21.45-.42.91-.6,1.37-.17.42-.16.87-.17,1.32,0,.02.04.07.06.07.11,0,.21,0,.31,0,.07-.36.12-.7.21-1.03.11-.46.31-.87.63-1.22.72-.8,1.95-.84,2.73-.09.58.56.68,1.5.22,2.13-.25.35-.6.58-1.01.72.01-.11.03-.21.04-.3.03-.35,0-.69-.18-1-.31-.51-.94-.62-1.42-.25-.31.25-.5.58-.56.98-.02.11.03.11.1.11.13,0,.26,0,.38,0,.1,0,.15.06.14.16,0,.27,0,.54,0,.81,0,.16-.02.17-.17.18-.16,0-.31,0-.49,0,.01.32.1.58.36.75.25.17.53.19.79.02.32-.21.38-.56.37-.93.32.12.59.55.76,1.23.3-.29.54-.61.76-.95-.27-.39-.26-.73.03-.95.24-.18.6-.13.78.11.21.28.14.61-.23.91.13.23.25.47.39.7.32.53.68,1.02,1.19,1.37.28.2.58.32.92.35.04,0,.07.05.11.08.16-.14.34-.3.52-.45.29-.24.52-.55.67-.9.01-.03.02-.06.03-.09-.09-.05-.18-.09-.26-.13-.12.17-.23.34-.36.5-.25.3-.54.53-.93.62-.5.12-.96-.12-1.14-.59-.19-.49-.02-.97.45-1.24.15-.08.32-.13.49-.18-.1.25-.17.49-.06.74.06.15.18.24.31.3.3.13.64-.03.79-.38-.12-.06-.23-.13-.35-.18-.11-.05-.12-.12-.07-.22.08-.18.17-.35.25-.54.05-.11.12-.13.21-.09.11.05.23.11.35.17.09-.22.11-.45.06-.68-.08-.4-.35-.7-.71-.76-.33-.05-.58.11-.75.37-.12.19-.2.4-.31.61-.32-.35-.55-.76-.47-1.27.08-.53.39-.89.89-1.05.86-.27,1.87.28,1.98,1.37.05.48-.03.93-.16,1.38-.08.28-.09.28.2.39.14-.29.3-.58.33-.9.04-.39.04-.78.06-1.17.02-.27.02-.55.09-.8.13-.48.5-.72.93-.87.18-.07.37-.11.59-.17Zm-15.63,6.1c.38,0,.72-.31.73-.76,0-.4-.35-.76-.73-.75-.39,0-.73.36-.73.76,0,.41.34.75.74.75Zm9.09,0c.4,0,.73-.34.73-.75,0-.4-.34-.76-.73-.76-.39,0-.73.35-.73.76,0,.41.33.75.73.75Zm-3.6-.14c.28-.08.56-.15.85-.23,0-.01,0-.03,0-.04-.38-.22-.64-.55-.83-.95-.18-.4-.26-.82-.3-1.25h-.39c-.02.44.03.86.18,1.26.15.4.32.79.5,1.21Zm-2.78-.24c.22.06.41.12.61.17.26.06.25.05.35-.2.11-.29.24-.56.36-.85.16-.4.22-.82.21-1.25,0-.04-.04-.11-.06-.11-.11-.01-.22,0-.33,0-.08.91-.34,1.71-1.14,2.24Z"/><path class="cls-1" d="m11.59,24.13v-.57c.14,0,.28,0,.41,0,.13.01.17-.04.16-.17-.01-.14,0-.28,0-.43,4.54,0,9.08,0,13.62,0,0,.15,0,.3,0,.45,0,.13.04.16.15.15.19-.01.38-.02.58-.02,0,.11,0,.23,0,.35-.01.14-.12.24-.26.24-1.06,0-2.12,0-3.18,0h-11.29c-.06,0-.12,0-.19,0Z"/></svg>